<svg width="118" height="18" viewBox="0 0 118 18" fill="none" xmlns="http://www.w3.org/2000/svg">
<path d="M5.39489 17.5L0.46875 0.045454H3.86932L7.0142 12.8722H7.17614L10.5341 0.045454H13.6278L16.9943 12.8807H17.1477L20.2926 0.045454H23.6932L18.767 17.5H15.6477L12.1534 5.25284H12.017L8.5142 17.5H5.39489ZM25.8857 17.5V0.045454H37.2379V2.69602H29.0476V7.43466H36.6499V10.0852H29.0476V14.8494H37.3061V17.5H25.8857ZM42.7053 17.5H39.3303L45.4751 0.045454H49.3786L55.532 17.5H52.157L47.495 3.625H47.3587L42.7053 17.5ZM42.8161 10.6562H52.0206V13.196H42.8161V10.6562ZM54.9545 2.69602V0.045454H68.8807V2.69602H63.4858V17.5H60.3494V2.69602H54.9545ZM71.5653 17.5V0.045454H74.7273V7.43466H82.8153V0.045454H85.9858V17.5H82.8153V10.0852H74.7273V17.5H71.5653ZM89.4247 17.5V0.045454H100.777V2.69602H92.5866V7.43466H100.189V10.0852H92.5866V14.8494H100.845V17.5H89.4247ZM104.003 17.5V0.045454H110.548C111.889 0.045454 113.014 0.278409 113.923 0.744318C114.838 1.21023 115.528 1.86364 115.994 2.70454C116.466 3.53977 116.702 4.5142 116.702 5.62784C116.702 6.74716 116.463 7.71875 115.986 8.54261C115.514 9.3608 114.818 9.99432 113.898 10.4432C112.977 10.8864 111.847 11.108 110.506 11.108H105.844V8.48295H110.08C110.864 8.48295 111.506 8.375 112.006 8.15909C112.506 7.9375 112.875 7.61648 113.114 7.19602C113.358 6.76989 113.48 6.24716 113.48 5.62784C113.48 5.00852 113.358 4.48011 113.114 4.04261C112.869 3.59943 112.497 3.2642 111.997 3.03693C111.497 2.80398 110.852 2.6875 110.062 2.6875H107.165V17.5H104.003ZM113.02 9.59091L117.341 17.5H113.812L109.568 9.59091H113.02Z" fill="#2575FF"/>
</svg>
